<?xml version="1.0" encoding="UTF-8"?>
<svg version="1.1" xmlns="http://www.w3.org/2000/svg" width="736" height="1440">
<path d="M0 0 C242.88 0 485.76 0 736 0 C736 475.2 736 950.4 736 1440 C493.12 1440 250.24 1440 0 1440 C0 964.8 0 489.6 0 0 Z " fill="#FEFEFE" transform="translate(0,0)"/>
<path d="M0 0 C7.63272503 6.38656584 14.32173978 13.03756211 20.3125 21 C20.87445068 21.74491699 21.43640137 22.48983398 22.01538086 23.25732422 C23.69009793 25.49551306 25.34943352 27.74395445 27 30 C27.6796582 30.9286084 27.6796582 30.9286084 28.37304688 31.87597656 C52.59659693 65.4492944 64.52235506 105.01211507 69.69042969 145.64257812 C69.93880239 147.5339715 70.22593567 149.42025699 70.52563477 151.30419922 C71.01389281 155.10823948 71.14580092 158.7672437 71.16796875 162.6015625 C71.1721582 163.31182587 71.17634766 164.02208923 71.18066406 164.75387573 C71.19039876 167.04430758 71.190459 169.33455095 71.1875 171.625 C71.18709213 172.80050415 71.18709213 172.80050415 71.18667603 173.99975586 C71.16682451 186.43157004 70.70958345 198.67122316 69 211 C68.89284668 211.79180664 68.78569336 212.58361328 68.67529297 213.39941406 C67.90537969 218.95578964 67.00096012 224.48078487 66 230 C65.86368164 230.7542627 65.72736328 231.50852539 65.58691406 232.28564453 C59.61681997 264.4869257 48.25154135 295.60068635 34 325 C33.30052246 326.46832275 33.30052246 326.46832275 32.58691406 327.96630859 C16.51496805 361.66003481 -4.38384714 393.18401322 -26.61474609 423.12939453 C-28.01079963 425.0145835 -29.39207651 426.90978189 -30.76953125 428.80859375 C-37.19603804 437.65505696 -43.8074479 446.35408921 -50.47607422 455.01904297 C-51.8731487 456.83510551 -53.26730853 458.65335118 -54.66015625 460.47265625 C-63.51863347 472.03533671 -72.50902585 483.46032323 -81.80322266 494.67602539 C-85.48293002 499.12624392 -89.08480331 503.62577007 -92.625 508.1875 C-96.81745405 513.58187311 -101.18812489 518.79379843 -105.65844727 523.95947266 C-109.42787352 528.31658868 -113.09068695 532.75001413 -116.72265625 537.22265625 C-119.74187714 540.90475925 -122.82501945 544.53062893 -125.90991211 548.15771484 C-128.85971308 551.63262479 -131.75671652 555.14462023 -134.625 558.6875 C-137.51249827 562.23896846 -140.47968021 565.6793029 -143.5625 569.0625 C-146.41145966 572.19096172 -149.13302445 575.36278893 -151.75 578.6875 C-155.18822064 583.05218729 -158.78481705 587.25289837 -162.4375 591.4375 C-166.97731757 596.64058998 -171.42055509 601.90162554 -175.765625 607.26953125 C-177.8082603 609.76568872 -179.88499073 612.22604892 -181.97949219 614.6784668 C-186.70131271 620.20735846 -191.27320421 625.82638134 -195.73828125 631.56445312 C-199.22110793 636.03326314 -202.78475345 640.42971991 -206.375 644.8125 C-211.46753374 651.04200317 -216.40179066 657.37696555 -221.26513672 663.78662109 C-224.19044536 667.6408234 -227.14474518 671.46575 -230.15844727 675.2512207 C-257.40139482 709.49453986 -281.76927727 746.76800389 -303 785 C-303.51240234 785.91652344 -304.02480469 786.83304688 -304.55273438 787.77734375 C-352.33286644 873.46422266 -378.90924358 968.44184952 -354.58056641 1065.56689453 C-353.91408006 1068.3600833 -353.40336359 1071.15701565 -353 1074 C-367.52201692 1059.96633409 -378.1844826 1041.49562592 -388 1024 C-388.45020508 1023.19820312 -388.90041016 1022.39640625 -389.36425781 1021.5703125 C-399.88406231 1002.63908758 -407.62942436 982.67387837 -414 962 C-414.22139648 961.28602051 -414.44279297 960.57204102 -414.67089844 959.83642578 C-433.21081478 899.16652332 -429.71538689 833.85638543 -415.63232422 772.74804688 C-415.01583108 770.06880103 -414.41538963 767.38633115 -413.81640625 764.703125 C-400.10755729 704.22557481 -373.38301953 647.41629878 -347.04296875 591.59765625 C-300.98766954 501.81642926 -300.98766954 501.81642926 -300.06640625 404.66015625 C-304.68023312 392.58502519 -313.30224499 382.06342976 -325 376.25 C-359.96502693 362.08147947 -398.72174143 371.96786694 -432.17675781 385.79150391 C-459.36672801 397.43024072 -484.87532196 412.40985268 -508.6887207 429.92993164 C-511.36592758 431.89210031 -513.96748498 433.63682618 -517 435 C-504.57683958 400.87562265 -483.50507663 371.50601895 -455 349 C-454.05898438 348.23042969 -453.11796875 347.46085937 -452.1484375 346.66796875 C-396.03757384 301.79377676 -321.49161317 286.66621339 -252.44940186 274.63705444 C-221.31315816 269.20521684 -190.03453788 263.54519012 -159.42041016 255.625 C-157.05873158 255.01516571 -154.69247523 254.42744352 -152.32421875 253.84375 C-105.01379061 242.01614296 -58.20702537 224.67828074 -22 191 C-21.27039063 190.34773437 -20.54078125 189.69546875 -19.7890625 189.0234375 C4.25921165 166.53786709 15.68264184 132.95144561 17.14794922 100.74853516 C18.13592227 67.29999466 11.64799372 35.84498236 0.73095703 4.3371582 C0 2 0 2 0 0 Z " fill="#811535" transform="translate(571,233)"/>
<path d="M0 0 C1.00337402 0.00491455 2.00674805 0.0098291 3.04052734 0.01489258 C26.54493084 0.38138536 46.28759996 8.76624496 63.875 24.3125 C64.51050781 24.86421875 65.14601563 25.4159375 65.80078125 25.984375 C79.86889515 39.04993366 87.02099159 56.95415886 90.875 75.3125 C91.16503906 76.55386719 91.16503906 76.55386719 91.4609375 77.8203125 C95.06894121 99.53641029 88.04798621 123.39046486 75.875 141.3125 C64.1979918 157.37669534 49.46806877 168.42228215 30.875 175.3125 C30.11832031 175.60898437 29.36164063 175.90546875 28.58203125 176.2109375 C7.62682035 183.92123368 -16.08642261 181.12548859 -36.19335938 172.23974609 C-45.96004491 167.55144078 -54.47994677 160.94455144 -62.125 153.3125 C-62.88296875 152.56613281 -63.6409375 151.81976563 -64.421875 151.05078125 C-74.45521131 140.58497355 -81.10144667 128.19770366 -85.125 114.3125 C-85.44339844 113.24 -85.76179688 112.1675 -86.08984375 111.0625 C-92.08916088 87.61816392 -87.45350626 63.13003654 -75.3125 42.5 C-71.45758192 36.52779737 -67.13722356 31.34110337 -62.125 26.3125 C-61.31546875 25.47976563 -60.5059375 24.64703125 -59.671875 23.7890625 C-43.76208153 8.30797604 -22.11347298 -0.12932952 0 0 Z " fill="#871738" transform="translate(387.125,270.6875)"/>
<path d="M0 0 C0.67804688 0.31582031 1.35609375 0.63164063 2.0546875 0.95703125 C4.32216451 2.17272676 5.60132556 3.53491329 7.25 5.5 C8.03117187 6.41265625 8.03117187 6.41265625 8.828125 7.34375 C10 9 10 9 10 11 C10.66 11 11.32 11 12 11 C25.87127214 34.90482565 27.53815768 63.30252282 21 90 C20.7834375 90.99257813 20.566875 91.98515625 20.34375 93.0078125 C18.23909625 102.20314497 15.05962249 111.08847819 12 120 C11.34 120 10.68 120 10 120 C10.39395107 118.39537005 10.79037757 116.79134803 11.1875 115.1875 C11.45949219 114.0840625 11.73148437 112.980625 12.01171875 111.84375 C12.70712226 109.1390976 13.43284669 106.46266098 14.20703125 103.78125 C21.84521004 76.94582063 26.81643907 43.7180999 13 18 C4.21912996 4.19208187 -7.92731261 -3.07464802 -23.61743164 -6.81762695 C-50.82532941 -12.30150314 -78.49133541 -5.60217993 -104.08764648 3.44921875 C-106 4 -106 4 -109 4 C-109 3.34 -109 2.68 -109 2 C-99.41480487 -1.50927168 -89.95938425 -4.70590735 -80 -7 C-77.05870638 -7.77957462 -74.11766767 -8.55958524 -71.1796875 -9.3515625 C-47.81852645 -14.1156322 -20.13570207 -13.78769961 0 0 Z " fill="#5E2030" transform="translate(254,611)"/>
<path d="M0 0 C0.66 0 1.32 0 2 0 C0.54846565 3.1847097 -1.23528497 5.72250309 -3.4375 8.4375 C-4.15164063 9.31792969 -4.86578125 10.19835937 -5.6015625 11.10546875 C-8.14591254 14.17609314 -10.72540089 17.2154596 -13.3125 20.25 C-17.58294958 25.25938131 -21.69588444 30.36943101 -25.73803711 35.56420898 C-29.2210178 40.03304304 -32.78468078 44.42963121 -36.375 48.8125 C-41.46753374 55.04200317 -46.40179066 61.37696555 -51.26513672 67.78662109 C-54.19044536 71.6408234 -57.14474518 75.46575 -60.15844727 79.2512207 C-76.6075011 99.92703778 -91.46640716 121.95187905 -106 144 C-107.20720977 145.81324854 -108.41537464 147.62586202 -109.625 149.4375 C-110.09164063 150.13746094 -110.55828125 150.83742188 -111.0390625 151.55859375 C-111.35617187 152.03425781 -111.67328125 152.50992188 -112 153 C-112.6796875 151.2890625 -112.6796875 151.2890625 -113 149 C-111.8203125 146.7109375 -111.8203125 146.7109375 -110.125 144.375 C-109.57070313 143.59898437 -109.01640625 142.82296875 -108.4453125 142.0234375 C-107.96835937 141.35570312 -107.49140625 140.68796875 -107 140 C-106.505 139.01 -106.505 139.01 -106 138 C-105.34 138 -104.68 138 -104 138 C-104 137.01 -104 136.02 -104 135 C-103.34 135 -102.68 135 -102 135 C-101.855625 134.38125 -101.71125 133.7625 -101.5625 133.125 C-101 131 -101 131 -100 129 C-99.34 129 -98.68 129 -98 129 C-97.731875 128.030625 -97.46375 127.06125 -97.1875 126.0625 C-96.795625 125.051875 -96.40375 124.04125 -96 123 C-94.515 122.505 -94.515 122.505 -93 122 C-92.71125 121.113125 -92.4225 120.22625 -92.125 119.3125 C-91.00523413 116.0154116 -89.60263949 114.14940509 -87.296875 111.5859375 C-85.89764746 109.87483394 -84.90981517 108.1377286 -83.875 106.1875 C-82 103 -82 103 -79 102 C-78.29618843 100.01276732 -77.6288189 98.01222047 -77 96 C-76.34 95.67 -75.68 95.34 -75 95 C-74.08880075 93.34634211 -73.17850489 91.69217813 -72.2734375 90.03515625 C-70.3817621 87.01195722 -68.0044083 84.49763005 -65.609375 81.8671875 C-63.77031545 79.73352133 -62.43458035 77.41613533 -61 75 C-60.34 75 -59.68 75 -59 75 C-58.7525 74.484375 -58.505 73.96875 -58.25 73.4375 C-55.26433387 67.61545106 -52.63180556 63.63180556 -48 59 C-46.14252417 56.80031245 -44.38305856 54.5295298 -42.625 52.25 C-42.14748291 51.63817871 -41.66996582 51.02635742 -41.17797852 50.39599609 C-39.03079634 47.64148983 -36.90469958 44.87372271 -34.80078125 42.0859375 C-33.87845703 40.86777344 -33.87845703 40.86777344 -32.9375 39.625 C-32.41027344 38.91601562 -31.88304687 38.20703125 -31.33984375 37.4765625 C-30.89769531 36.98929688 -30.45554687 36.50203125 -30 36 C-29.34 36 -28.68 36 -28 36 C-28 35.01 -28 34.02 -28 33 C-27.34 33 -26.68 33 -26 33 C-25.67 32.01 -25.34 31.02 -25 30 C-24.34 30 -23.68 30 -23 30 C-22.731875 29.195625 -22.46375 28.39125 -22.1875 27.5625 C-21.5996875 26.2940625 -21.5996875 26.2940625 -21 25 C-20.01 24.67 -19.02 24.34 -18 24 C-18 23.34 -18 22.68 -18 22 C-17.34 22 -16.68 22 -16 22 C-16 20.68 -16 19.36 -16 18 C-15.01 18 -14.02 18 -13 18 C-12.90589844 17.42765625 -12.81179688 16.8553125 -12.71484375 16.265625 C-11.83488251 13.47667681 -10.50184848 11.92723114 -8.5625 9.75 C-7.94503906 9.04359375 -7.32757813 8.3371875 -6.69140625 7.609375 C-5 6 -5 6 -3 6 C-2.814375 5.071875 -2.814375 5.071875 -2.625 4.125 C-2 2 -2 2 0 0 Z " fill="#5E1E30" transform="translate(401,829)"/>
<path d="M0 0 C0.66 0 1.32 0 2 0 C1.41277835 4.28029146 -0.10030233 7.23483374 -2.32421875 10.91796875 C-2.66199341 11.48348953 -2.99976807 12.04901031 -3.34777832 12.63166809 C-4.07561139 13.85010943 -4.80633115 15.06683017 -5.53964233 16.28198242 C-7.50495346 19.54452534 -9.44021497 22.82475825 -11.375 26.10546875 C-11.76842087 26.77222626 -12.16184174 27.43898376 -12.56718445 28.12594604 C-28.70072686 55.55678953 -42.57321806 84.00339919 -53.78173828 113.76953125 C-55.82609613 119.19056193 -57.91585671 124.59416695 -60 130 C-60.33 130 -60.66 130 -61 130 C-61.54784591 124.79546385 -60.02027926 121.16100918 -58.0234375 116.48046875 C-56.73821807 113.36552854 -55.84971187 110.25722885 -55 107 C-54.34 107 -53.68 107 -53 107 C-52.89042969 106.43152344 -52.78085938 105.86304688 -52.66796875 105.27734375 C-51.62387599 100.19269689 -50.15079965 95.74968257 -48 91 C-47.690625 90.01 -47.38125 89.02 -47.0625 88 C-46.01242431 85.03508041 -44.61908719 82.49914486 -43.015625 79.80078125 C-40.90140117 76.05209977 -39.35970813 72.0791244 -38 68 C-37.34 68 -36.68 68 -36 68 C-35.814375 67.1646875 -35.814375 67.1646875 -35.625 66.3125 C-34.28751111 61.36379112 -32.02687344 56.69866115 -30 52 C-29.34 52 -28.68 52 -28 52 C-27.71125 51.05125 -27.4225 50.1025 -27.125 49.125 C-26 46 -26 46 -24 44 C-22.21063882 40.04849407 -20.58973224 36.03547414 -19 32 C-18.34 32 -17.68 32 -17 32 C-16.67 30.35 -16.34 28.7 -16 27 C-15.34 27 -14.68 27 -14 27 C-14 26.01 -14 25.02 -14 24 C-13.34 24 -12.68 24 -12 24 C-11.92652344 23.33097656 -11.85304688 22.66195312 -11.77734375 21.97265625 C-10.73337188 17.9803819 -8.74446288 14.91020148 -6.5625 11.4375 C-5.75004259 10.12447642 -4.9388069 8.81069594 -4.12890625 7.49609375 C-3.56647217 6.58512939 -3.56647217 6.58512939 -2.99267578 5.65576172 C-1.89015138 3.81677489 -0.90512479 1.94379259 0 0 Z " fill="#581A2A" transform="translate(285,982)"/>
<path d="M0 0 C1.65 0 3.3 0 5 0 C1.90734996 3.36951585 -1.72429179 4.7658 -5.875 6.5 C-32.00139306 17.82989213 -56.65971148 32.58671754 -79.30615234 49.83349609 C-81.13031136 51.08974167 -82.99995899 52.05382045 -85 53 C-80.94922375 42.3206808 -76.25066451 32.14151192 -71 22 C-70 25 -70 25 -71.43359375 28.21484375 C-72.09186334 29.46090154 -72.76026737 30.70164611 -73.4375 31.9375 C-76.27337861 37.12700668 -76.27337861 37.12700668 -77 43 C-70.78080958 39.19334132 -64.5701546 35.38248249 -58.4375 31.4375 C-52.7228386 27.78508597 -46.872736 24.39013623 -41 21 C-37.92895663 19.1939429 -34.8581739 17.3874634 -31.7890625 15.578125 C-28.90488541 13.94618166 -25.97506775 12.45868973 -23 11 C-21.63875 10.319375 -21.63875 10.319375 -20.25 9.625 C-19.1775 9.08875 -18.105 8.5525 -17 8 C-16.22269531 7.58234375 -15.44539063 7.1646875 -14.64453125 6.734375 C-9.66899746 4.11488066 -5.63017792 2.36718552 0 2 C0 1.34 0 0.68 0 0 Z " fill="#601E30" transform="translate(139,615)"/>
<path d="M0 0 C0.66 0.99 1.32 1.98 2 3 C1.27296875 3.95777344 0.5459375 4.91554688 -0.203125 5.90234375 C-5.55202833 12.97727976 -10.80782444 20.0952033 -15.875 27.375 C-24.68953759 40.00059761 -34.31779016 52.03254809 -44 64 C-44.495 62.515 -44.495 62.515 -45 61 C-43.6875 58.8125 -43.6875 58.8125 -42 57 C-41.34 57 -40.68 57 -40 57 C-39.34 55.02 -38.68 53.04 -38 51 C-37.34 51 -36.68 51 -36 51 C-35.34 49.68 -34.68 48.36 -34 47 C-33.34 47 -32.68 47 -32 47 C-31.87625 46.401875 -31.7525 45.80375 -31.625 45.1875 C-31 43 -31 43 -29 40 C-28.34 40 -27.68 40 -27 40 C-27 39.01 -27 38.02 -27 37 C-26.34 37 -25.68 37 -25 37 C-24.87625 36.401875 -24.7525 35.80375 -24.625 35.1875 C-24 33 -24 33 -22 30 C-21.34 30 -20.68 30 -20 30 C-19.7525 29.278125 -19.505 28.55625 -19.25 27.8125 C-17.87730408 24.72393418 -16.27646704 22.48988582 -14 20 C-13.34 20 -12.68 20 -12 20 C-12 18.68 -12 17.36 -12 16 C-11.34 16 -10.68 16 -10 16 C-9.731875 15.195625 -9.46375 14.39125 -9.1875 13.5625 C-8.795625 12.716875 -8.40375 11.87125 -8 11 C-7.01 10.67 -6.02 10.34 -5 10 C-3.77479736 6.99152582 -3.77479736 6.99152582 -3 4 C-2.34 4 -1.68 4 -1 4 C-0.67 2.68 -0.34 1.36 0 0 Z " fill="#672035" transform="translate(555,636)"/>
<path d="M0 0 C0.99 0.33 1.98 0.66 3 1 C-8.25208181 21.32310053 -20.47511931 41.10273615 -34 60 C-34.33 58.68 -34.66 57.36 -35 56 C-34.34 56 -33.68 56 -33 56 C-32.67 54.68 -32.34 53.36 -32 52 C-31.34 52 -30.68 52 -30 52 C-29.9175 51.278125 -29.835 50.55625 -29.75 49.8125 C-28.84960277 46.43601039 -27.19816861 44.679018 -25 42 C-24.835 41.319375 -24.67 40.63875 -24.5 39.9375 C-23.78992589 37.18596281 -22.00961992 35.9468193 -20 34 C-19.67 33.01 -19.34 32.02 -19 31 C-18.34 31 -17.68 31 -17 31 C-16.896875 30.443125 -16.79375 29.88625 -16.6875 29.3125 C-15.85821592 26.5230899 -14.65700944 24.3860936 -13 22 C-12.34 22 -11.68 22 -11 22 C-10.67 20.35 -10.34 18.7 -10 17 C-9.34 17 -8.68 17 -8 17 C-7.90847656 16.30519531 -7.81695313 15.61039063 -7.72265625 14.89453125 C-6.84484502 11.3785414 -5.30948033 8.78477654 -3.4375 5.6875 C-2.47650391 4.08455078 -2.47650391 4.08455078 -1.49609375 2.44921875 C-1.00238281 1.64097656 -0.50867188 0.83273437 0 0 Z " fill="#6E2539" transform="translate(592,577)"/>
<path d="M0 0 C1.12212891 -0.01224609 2.24425781 -0.02449219 3.40039062 -0.03710938 C4.47353516 -0.03904297 5.54667969 -0.04097656 6.65234375 -0.04296875 C7.62034912 -0.04707764 8.58835449 -0.05118652 9.58569336 -0.05541992 C12.0625 0.1875 12.0625 0.1875 15.0625 2.1875 C13.93158936 2.20937378 13.93158936 2.20937378 12.77783203 2.23168945 C-12.67253377 2.77990482 -34.99452217 6.13898013 -59.02514648 14.63671875 C-60.9375 15.1875 -60.9375 15.1875 -63.9375 15.1875 C-63.9375 14.5275 -63.9375 13.8675 -63.9375 13.1875 C-54.35230487 9.67822832 -44.89688425 6.48159265 -34.9375 4.1875 C-31.99620638 3.40792538 -29.05516767 2.62791476 -26.1171875 1.8359375 C-17.48623044 0.07581604 -8.77982849 0.00516764 0 0 Z " fill="#541527" transform="translate(208.9375,599.8125)"/>
<path d="M0 0 C0.66 0.33 1.32 0.66 2 1 C2 2.65 2 4.3 2 6 C2.66 6 3.32 6 4 6 C4 7.65 4 9.3 4 11 C4.66 11 5.32 11 6 11 C9 16.75 9 16.75 9 19 C9.66 19 10.32 19 11 19 C11.53496094 20.01320313 12.06992187 21.02640625 12.62109375 22.0703125 C14.95887914 26.15706196 17.84331774 29.46227181 21.0625 32.875 C21.59166016 33.45507812 22.12082031 34.03515625 22.66601562 34.6328125 C25.06135275 37.20547069 26.6148822 38.8716274 30 40 C30 40.66 30 41.32 30 42 C30.55171875 42.268125 31.1034375 42.53625 31.671875 42.8125 C34.25088039 44.12796584 36.75082068 45.53849162 39.25 47 C40.14203125 47.515625 41.0340625 48.03125 41.953125 48.5625 C42.62859375 49.036875 43.3040625 49.51125 44 50 C44 50.66 44 51.32 44 52 C26.77737382 45.84679654 12.50216569 29.71624721 4 14 C2.01210121 9.78356764 0.42187082 5.43773367 -1 1 C-0.67 0.67 -0.34 0.34 0 0 Z " fill="#762C41" transform="translate(305,389)"/>
<path d="M0 0 C1.65 0 3.3 0 5 0 C1.90773685 3.36909433 -1.72382464 4.76741292 -5.875 6.5 C-13.14210696 9.6261199 -20.19012563 13.06000254 -27.1875 16.75 C-28.05938965 17.20955078 -28.9312793 17.66910156 -29.82958984 18.14257812 C-33.59032815 20.14035676 -37.3162657 22.1713489 -40.98828125 24.328125 C-44 26 -44 26 -46 26 C-46 25.34 -46 24.68 -46 24 C-45.443125 23.69707031 -44.88625 23.39414062 -44.3125 23.08203125 C-40.41278854 20.94114236 -36.56640241 18.76384699 -32.8125 16.375 C-29.6318762 14.35955521 -26.4004529 12.62630356 -23 11 C-22.0925 10.54625 -21.185 10.0925 -20.25 9.625 C-19.1775 9.08875 -18.105 8.5525 -17 8 C-16.22269531 7.58234375 -15.44539063 7.1646875 -14.64453125 6.734375 C-9.66899746 4.11488066 -5.63017792 2.36718552 0 2 C0 1.34 0 0.68 0 0 Z " fill="#581A2B" transform="translate(139,615)"/>
<path d="M0 0 C1.91826441 3.2501914 2.0092343 3.93535991 1.4375 7.9375 C-2.66966847 23.79428966 -10.35425989 36.73687987 -21 49 C-21.61328125 47.140625 -21.61328125 47.140625 -22 45 C-20.1875 42.75 -20.1875 42.75 -18 41 C-17.34 41 -16.68 41 -16 41 C-15.90589844 40.46890625 -15.81179688 39.9378125 -15.71484375 39.390625 C-14.76554381 36.21591699 -13.22551277 33.61273301 -11.5625 30.75 C-10.63630859 29.13351562 -10.63630859 29.13351562 -9.69140625 27.484375 C-9.13324219 26.66453125 -8.57507813 25.8446875 -8 25 C-7.34 25 -6.68 25 -6 25 C-5.896875 23.989375 -5.79375 22.97875 -5.6875 21.9375 C-5.09685921 18.55473912 -4.20072227 16.11717223 -2.765625 13.04296875 C-1.20057535 8.86684137 -0.67518961 4.39270418 0 0 Z " fill="#71223A" transform="translate(475,374)"/>
<path d="M0 0 C1.08263418 3.24790253 0.97577747 3.83257836 -0.00390625 6.9375 C-0.24729736 7.73728271 -0.49068848 8.53706543 -0.74145508 9.36108398 C-1.0123999 10.23192627 -1.28334473 11.10276855 -1.5625 12 C-4.178088 20.74061073 -6.35586953 29.52671144 -8.3125 38.4375 C-8.56652588 39.59185547 -8.82055176 40.74621094 -9.08227539 41.93554688 C-10.169505 46.94500442 -11.18512591 51.9380452 -12 57 C-15.47864011 51.78203983 -13.1800158 45.74325577 -12.0546875 39.828125 C-4.81270582 4.81270582 -4.81270582 4.81270582 0 0 Z " fill="#571B2A" transform="translate(223,1113)"/>
<path d="M0 0 C0.33 0 0.66 0 1 0 C1 1.98 1 3.96 1 6 C1.66 6 2.32 6 3 6 C0.39810638 22.6078316 -3.54159156 38.101723 -9 54 C-9.66 54 -10.32 54 -11 54 C-10.60604893 52.39537005 -10.20962243 50.79134803 -9.8125 49.1875 C-9.54050781 48.0840625 -9.26851563 46.980625 -8.98828125 45.84375 C-8.29287774 43.1390976 -7.56715331 40.46266098 -6.79296875 37.78125 C-3.25074583 25.30928004 -1.39514364 12.87945178 0 0 Z " fill="#612232" transform="translate(275,677)"/>
<path d="M0 0 C0.66 0.33 1.32 0.66 2 1 C-4.91338127 19.19845953 -13.26575164 36.61468659 -22 54 C-22.66 53.34 -23.32 52.68 -24 52 C-21.74616816 46.60518974 -19.2785783 41.86134024 -16 37 C-15.29485154 34.85266073 -15.29485154 34.85266073 -15 33 C-14.67 32.34 -14.34 31.68 -14 31 C-13.34 31 -12.68 31 -12 31 C-11.79503906 30.22914063 -11.59007812 29.45828125 -11.37890625 28.6640625 C-11.10949219 27.66117188 -10.84007812 26.65828125 -10.5625 25.625 C-10.29566406 24.62726562 -10.02882813 23.62953125 -9.75390625 22.6015625 C-9 20 -9 20 -8 18 C-7.34 18 -6.68 18 -6 18 C-6 16.35 -6 14.7 -6 13 C-5.34 13 -4.68 13 -4 13 C-3.896875 12.34 -3.79375 11.68 -3.6875 11 C-2.80786436 7.16158991 -1.43030104 3.66903309 0 0 Z " fill="#682236" transform="translate(618,522)"/>
<path d="M0 0 C0.66 0.33 1.32 0.66 2 1 C2.05156756 7.61210721 2.08608842 14.22416091 2.10986328 20.83642578 C2.11979574 23.07635434 2.13334623 25.31627038 2.15087891 27.55615234 C2.23713765 38.87634399 2.20949015 50.14007126 1.1796875 61.421875 C1.1100882 62.25132629 1.04048889 63.08077759 0.96878052 63.93536377 C0.53343524 68.06438353 0.13813763 70.2713049 -3 73 C-2.86722656 71.87464844 -2.73445312 70.74929688 -2.59765625 69.58984375 C-2.41908392 68.03908401 -2.24070946 66.48830148 -2.0625 64.9375 C-1.97548828 64.20466797 -1.88847656 63.47183594 -1.79882812 62.71679688 C-0.13883645 48.14575887 0.13226336 33.70622515 0.0625 19.0625 C0.05746985 17.20377726 0.05290965 15.34505319 0.04882812 13.48632812 C0.03795435 8.99085168 0.02077523 4.49544113 0 0 Z " fill="#FCE5ED" transform="translate(641,383)"/>
<path d="M0 0 C0.66 0 1.32 0 2 0 C2.60736227 1.33188071 3.21067185 2.6656095 3.8125 4 C4.14894531 4.7425 4.48539062 5.485 4.83203125 6.25 C7.50053117 12.53302323 9.49047329 18.24302813 10.1875 25.0625 C10.26718018 25.79130371 10.34686035 26.52010742 10.42895508 27.27099609 C11.39844826 36.89511643 11.52284432 46.42435491 10 56 C9.67 56 9.34 56 9 56 C8.98541748 55.29617188 8.97083496 54.59234375 8.95581055 53.8671875 C8.46333366 28.39716895 8.46333366 28.39716895 0.98828125 4.2578125 C0 2 0 2 0 0 Z " fill="#551325" transform="translate(267,627)"/>
<path d="M0 0 C13.58152174 11.36413043 13.58152174 11.36413043 17 18 C13.18084612 16.49961812 11.50053617 14.16734582 9 11 C8.34 11 7.68 11 7 11 C7.99 14.96 8.98 18.92 10 23 C9.01 23 8.02 23 7 23 C5.82847622 19.54329268 4.66360923 16.08437878 3.5 12.625 C3.16613281 11.64015625 2.83226562 10.6553125 2.48828125 9.640625 C2.17246094 8.69960937 1.85664062 7.75859375 1.53125 6.7890625 C1.23798828 5.91975098 0.94472656 5.05043945 0.64257812 4.15478516 C0 2 0 2 0 0 Z " fill="#732138" transform="translate(571,233)"/>
<path d="M0 0 C1.25674458 4.13828035 0.34783875 7.00433601 -1 11 C-1.31130859 11.95326172 -1.31130859 11.95326172 -1.62890625 12.92578125 C-2.10847611 14.38093322 -2.59473912 15.83388831 -3.0859375 17.28515625 C-3.78885839 19.37289138 -4.47917882 21.46487216 -5.1640625 23.55859375 C-7.53885953 30.80744042 -10.03729177 37.96563688 -13 45 C-13.66 45 -14.32 45 -15 45 C-12.80658801 34.90810776 -9.39944158 25.40545469 -5.8125 15.75 C-5.24747967 14.21505242 -4.68302269 12.67989735 -4.11914062 11.14453125 C-2.75256316 7.42726839 -1.37844001 3.71287943 0 0 Z " fill="#6B2538" transform="translate(181,922)"/>
<path d="M0 0 C0.33 0.66 0.66 1.32 1 2 C1.66 2 2.32 2 3 2 C6 6.38461538 6 6.38461538 6 9 C6.66 9 7.32 9 8 9 C9.625 10.375 9.625 10.375 11 12 C11 12.66 11 13.32 11 14 C11.99 14 12.98 14 14 14 C14.33 14.66 14.66 15.32 15 16 C15.66 15.34 16.32 14.68 17 14 C17.53122363 15.76774419 18.04964073 17.53934083 18.5625 19.3125 C18.85253906 20.29863281 19.14257812 21.28476563 19.44140625 22.30078125 C20 25 20 25 19 28 C13.69978439 21.32601527 8.41170931 14.64196166 3.3125 7.8125 C2.34763672 6.52279297 2.34763672 6.52279297 1.36328125 5.20703125 C0 3 0 3 0 0 Z " fill="#7E2B44" transform="translate(198,1279)"/>
<path d="M0 0 C0.33 0 0.66 0 1 0 C1.06578483 6.2522996 0.83729118 12.39772162 0.34375 18.62890625 C0.27716187 19.50401352 0.21057373 20.37912079 0.14196777 21.28074646 C-0.06883593 24.04158649 -0.28433497 26.80203591 -0.5 29.5625 C-0.64484349 31.44854375 -0.78937763 33.33461129 -0.93359375 35.22070312 C-1.28548973 39.81408457 -1.64159348 44.40712215 -2 49 C-2.33 49 -2.66 49 -3 49 C-4.5043185 35.69256713 -3.51138447 22.81291648 -2 9.5625 C-1.91709717 8.83450195 -1.83419434 8.10650391 -1.7487793 7.35644531 C-1.12639792 2.25279583 -1.12639792 2.25279583 0 0 Z " fill="#521124" transform="translate(207,1179)"/>
<path d="M0 0 C0.33 0.66 0.66 1.32 1 2 C-0.38178174 4.52312128 -1.81494084 6.9022617 -3.375 9.3125 C-3.82601074 10.02148438 -4.27702148 10.73046875 -4.74169922 11.4609375 C-8.99047754 18.09288746 -13.44530115 24.57501418 -18 31 C-18.33 29.68 -18.66 28.36 -19 27 C-18.34 27 -17.68 27 -17 27 C-16.67 25.68 -16.34 24.36 -16 23 C-15.34 23 -14.68 23 -14 23 C-13.9175 22.278125 -13.835 21.55625 -13.75 20.8125 C-12.84960277 17.43601039 -11.19816861 15.679018 -9 13 C-8.835 12.319375 -8.67 11.63875 -8.5 10.9375 C-7.78992589 8.18596281 -6.00961992 6.9468193 -4 5 C-3.67 4.01 -3.34 3.02 -3 2 C-2.01 1.34 -1.02 0.68 0 0 Z " fill="#641D31" transform="translate(576,606)"/>
<path d="M0 0 C1 3 1 3 -0.43359375 6.0390625 C-1.09692958 7.23695223 -1.76516088 8.43214027 -2.4375 9.625 C-4.69005566 13.79096491 -6.4715268 17.21144213 -6.0625 22.0625 C-6 26 -6 26 -7.30859375 27.65625 C-9 29.0625 -9 29.0625 -12 31 C-12.66 30.67 -13.32 30.34 -14 30 C-9.56651088 19.87274059 -5.08402621 9.82141427 0 0 Z " fill="#6C2D3F" transform="translate(68,637)"/>
<path d="M0 0 C0.33 0.66 0.66 1.32 1 2 C0.67 2.66 0.34 3.32 0 4 C-0.99 4 -1.98 4 -3 4 C-3 4.66 -3 5.32 -3 6 C-3.94875 6.45375 -4.8975 6.9075 -5.875 7.375 C-12.93938436 11.40559967 -19.08484205 17.41797483 -22 25 C-24.625 26.3125 -24.625 26.3125 -27 27 C-24.22217728 21.68590436 -21.15756108 17.67655397 -16.875 13.5 C-16.30821533 12.93901611 -15.74143066 12.37803223 -15.1574707 11.80004883 C-10.49260042 7.27659777 -5.52707574 3.43102896 0 0 Z " fill="#72283D" transform="translate(341,284)"/>
<path d="M0 0 C0.99 0.33 1.98 0.66 3 1 C2.29875 1.82242188 1.5975 2.64484375 0.875 3.4921875 C-4.8647342 10.24010261 -10.51696187 17.04015504 -16 24 C-16.33 23.01 -16.66 22.02 -17 21 C-14.80040531 17.17107591 -12.34223592 13.89660447 -9 11 C-8.34 11 -7.68 11 -7 11 C-6.34 9.02 -5.68 7.04 -5 5 C-4.34 5 -3.68 5 -3 5 C-2.690625 4.360625 -2.38125 3.72125 -2.0625 3.0625 C-1 1 -1 1 0 0 Z " fill="#652234" transform="translate(474,742)"/>
<path d="M0 0 C1.23459961 -0.00580078 1.23459961 -0.00580078 2.49414062 -0.01171875 C8.56078396 -0.00171604 8.56078396 -0.00171604 9.6875 1.125 C12.46415837 1.36920122 15.23966999 1.50888187 18.0234375 1.6484375 C20.95912488 2.17358979 21.87651618 2.82123147 23.6875 5.125 C22.79933594 4.99222656 21.91117187 4.85945313 20.99609375 4.72265625 C8.91882621 3.05304409 -3.13349652 2.51880059 -15.3125 2.125 C-15.3125 1.795 -15.3125 1.465 -15.3125 1.125 C-10.16611609 0.07743235 -5.22493571 -0.02514003 0 0 Z " fill="#FAE2EA" transform="translate(391.3125,268.875)"/>
<path d="M0 0 C0.99 0.66 1.98 1.32 3 2 C2.61328125 2.82242188 2.2265625 3.64484375 1.828125 4.4921875 C-1.04379249 10.64832746 -3.77953267 16.76397376 -6.04296875 23.171875 C-7 25 -7 25 -10 26 C-7.24892128 17.09945121 -3.59701637 8.58356509 0 0 Z " fill="#6F263A" transform="translate(192,895)"/>
<path d="M0 0 C0.61743164 1.7902832 0.61743164 1.7902832 1 4 C-0.42893839 6.55188789 -1.87211123 8.8207786 -3.5625 11.1875 C-4.02124512 11.85080322 -4.47999023 12.51410645 -4.95263672 13.19750977 C-5.86983625 14.52359111 -6.79164491 15.84649753 -7.71826172 17.16601562 C-9.39390215 19.56361771 -11.01237576 21.99719151 -12.625 24.4375 C-13.41666667 25.625 -14.20833333 26.8125 -15 28 C-15.6796875 26.2890625 -15.6796875 26.2890625 -16 24 C-14.8203125 21.7109375 -14.8203125 21.7109375 -13.125 19.375 C-12.57070313 18.59898437 -12.01640625 17.82296875 -11.4453125 17.0234375 C-10.96835937 16.35570312 -10.49140625 15.68796875 -10 15 C-9.67 14.34 -9.34 13.68 -9 13 C-8.34 13 -7.68 13 -7 13 C-7 12.01 -7 11.02 -7 10 C-6.34 10 -5.68 10 -5 10 C-4.855625 9.38125 -4.71125 8.7625 -4.5625 8.125 C-4 6 -4 6 -3 4 C-2.34 4 -1.68 4 -1 4 C-0.67 2.68 -0.34 1.36 0 0 Z " fill="#561828" transform="translate(304,954)"/>
<path d="M0 0 C0.66 0 1.32 0 2 0 C0.11082583 6.1120341 -2.13040073 12.06079219 -4.5 18 C-4.79656494 18.76626709 -5.09312988 19.53253418 -5.39868164 20.32202148 C-6.1805361 22.25146094 -7.08234711 24.13132502 -8 26 C-8.99 26.33 -9.98 26.66 -11 27 C-9.1030492 20.86280622 -6.81365651 14.93805724 -4.375 9 C-3.90501587 7.85059937 -3.90501587 7.85059937 -3.42553711 6.67797852 C-1.12592536 1.12592536 -1.12592536 1.12592536 0 0 Z " fill="#622233" transform="translate(257,751)"/>
<path d="M0 0 C0.66 0.33 1.32 0.66 2 1 C-1.48912506 8.88764974 -8.13310196 15.89384504 -15 21 C-14.40888676 17.67954906 -13.32679853 15.91217346 -11.0625 13.4375 C-9.14863371 11.32613399 -7.59443774 9.39165661 -6 7 C-5.34 7 -4.68 7 -4 7 C-4 6.34 -4 5.68 -4 5 C-3.34 5 -2.68 5 -2 5 C-1.34 3.35 -0.68 1.7 0 0 Z " fill="#611D30" transform="translate(436,787)"/>
<path d="M0 0 C-0.94359375 0.24234375 -1.8871875 0.4846875 -2.859375 0.734375 C-10.21740901 2.64800289 -17.43805005 4.71843308 -24.609375 7.265625 C-27 8 -27 8 -30 8 C-30 7.34 -30 6.68 -30 6 C-5.22527393 -3.04519276 -5.22527393 -3.04519276 0 0 Z " fill="#581B2C" transform="translate(175,607)"/>
<path d="M0 0 C0.66 0 1.32 0 2 0 C1.54554036 1.41791408 1.08625056 2.83428046 0.625 4.25 C0.36976563 5.03890625 0.11453125 5.8278125 -0.1484375 6.640625 C-0.95298665 8.86974282 -1.91340293 10.89747885 -3 13 C-3.495 14.2375 -3.495 14.2375 -4 15.5 C-4.89534646 17.73836615 -5.89106266 19.86133513 -7 22 C-7.99 21.67 -8.98 21.34 -10 21 C-8.52452278 17.68584432 -7.04400419 14.37396536 -5.5625 11.0625 C-5.14162109 10.11697266 -4.72074219 9.17144531 -4.28710938 8.19726562 C-3.88427734 7.29814453 -3.48144531 6.39902344 -3.06640625 5.47265625 C-2.69459229 4.64000244 -2.32277832 3.80734863 -1.93969727 2.94946289 C-1 1 -1 1 0 0 Z " fill="#631F32" transform="translate(244,782)"/>
<path d="M0 0 C0.66 0.33 1.32 0.66 2 1 C1.28553261 4.43431486 -0.0157625 7.39123673 -1.5 10.5625 C-2.8114063 13.37211176 -4.01895192 16.05685576 -5 19 C-5.66 19 -6.32 19 -7 19 C-7.33 19.99 -7.66 20.98 -8 22 C-8.33 21.34 -8.66 20.68 -9 20 C-8.28735352 17.93701172 -8.28735352 17.93701172 -7.12890625 15.4296875 C-6.51499023 14.08583984 -6.51499023 14.08583984 -5.88867188 12.71484375 C-5.45103516 11.77769531 -5.01339844 10.84054687 -4.5625 9.875 C-3.9118457 8.45767578 -3.9118457 8.45767578 -3.24804688 7.01171875 C-2.1723338 4.67115623 -1.08940487 2.33421339 0 0 Z " fill="#672335" transform="translate(233,805)"/>
<path d="M0 0 C0.99 0.66 1.98 1.32 3 2 C-0.96 5.96 -4.92 9.92 -9 14 C-9.66 13.01 -10.32 12.02 -11 11 C-7.37 7.37 -3.74 3.74 0 0 Z " fill="#7D2942" transform="translate(103,593)"/>
<path d="M0 0 C0.33 0 0.66 0 1 0 C1.26616037 28.53830601 1.26616037 28.53830601 -1.54296875 31.78125 C-2.02378906 32.1834375 -2.50460937 32.585625 -3 33 C-2.86722656 31.87464844 -2.73445312 30.74929688 -2.59765625 29.58984375 C-1.45645865 19.7332618 -0.55529842 9.90769284 0 0 Z " fill="#E6C5CF" transform="translate(641,423)"/>
<path d="M0 0 C0.66 0 1.32 0 2 0 C3.2982126 5.76081841 4.25706972 11.08739655 4 17 C0.6485702 15.3242851 0.00104845 11.95581165 -1.3125 8.58984375 C-2.2197994 5.17200567 -1.62914012 3.09536623 0 0 Z " fill="#6C243A" transform="translate(210,1279)"/>
<path d="M0 0 C0 3.33229084 -0.32640878 3.79081409 -2.30078125 6.28515625 C-3.02491211 7.20458008 -3.02491211 7.20458008 -3.76367188 8.14257812 C-4.27478516 8.77615234 -4.78589844 9.40972656 -5.3125 10.0625 C-6.06176758 11.01866211 -6.06176758 11.01866211 -6.82617188 11.99414062 C-9.13013747 14.89011857 -10.87677533 16.91785022 -14 19 C-13.67 17.68 -13.34 16.36 -13 15 C-12.34 15 -11.68 15 -11 15 C-10.90460938 14.43539062 -10.80921875 13.87078125 -10.7109375 13.2890625 C-9.83340521 10.46360138 -8.4595743 8.68950512 -6.625 6.375 C-6.01914062 5.59898437 -5.41328125 4.82296875 -4.7890625 4.0234375 C-3 2 -3 2 0 0 Z " fill="#652134" transform="translate(492,721)"/>
<path d="M0 0 C0.33 0 0.66 0 1 0 C2.59216126 9.22686224 1.13850014 17.04729601 -1 26 C-1.66 25.67 -2.32 25.34 -3 25 C-2.01 16.75 -1.02 8.5 0 0 Z " fill="#792F46" transform="translate(588,337)"/>
<path d="M0 0 C0.99 0 1.98 0 3 0 C3.33 3.63 3.66 7.26 4 11 C4.66 11 5.32 11 6 11 C7.1577506 14.47325181 7.06866652 17.36067448 7 21 C4.88831106 18.88831106 4.51584089 17.94310579 3.7109375 15.15625 C3.49179688 14.40472656 3.27265625 13.65320312 3.046875 12.87890625 C2.82515625 12.09386719 2.6034375 11.30882812 2.375 10.5 C2.14554688 9.71496094 1.91609375 8.92992187 1.6796875 8.12109375 C0 2.2921782 0 2.2921782 0 0 Z " fill="#6E1F37" transform="translate(154,1182)"/>
<path d="M0 0 C0.66 0 1.32 0 2 0 C0.65346233 7.13664963 -2.3507131 12.75719474 -6 19 C-6.66 19 -7.32 19 -8 19 C-6.60121198 14.53202662 -4.86369228 10.36177921 -2.875 6.125 C-2.33617187 4.97257813 -1.79734375 3.82015625 -1.2421875 2.6328125 C-0.62730469 1.32957031 -0.62730469 1.32957031 0 0 Z " fill="#692538" transform="translate(219,835)"/>
<path d="M0 0 C0.99 0 1.98 0 3 0 C3.515625 1.093125 4.03125 2.18625 4.5625 3.3125 C7.29120416 8.79946107 10.64838461 13.87843041 14 19 C13.34 19.66 12.68 20.32 12 21 C10.55969281 18.62666362 9.12269913 16.25142274 7.6875 13.875 C7.28337891 13.20984375 6.87925781 12.5446875 6.46289062 11.859375 C4.12543592 7.98262085 1.96548039 4.08361945 0 0 Z " fill="#762B42" transform="translate(184,1258)"/>
<path d="M0 0 C6.03185341 5.49963105 10.86809842 12.44659031 14 20 C13.67 20.66 13.34 21.32 13 22 C12.608125 21.34 12.21625 20.68 11.8125 20 C11.214375 19.01 10.61625 18.02 10 17 C9.59007812 16.31421875 9.18015625 15.6284375 8.7578125 14.921875 C8.32210938 14.20515625 7.88640625 13.4884375 7.4375 12.75 C7.02371094 12.06421875 6.60992187 11.3784375 6.18359375 10.671875 C5.09002626 8.84851063 5.09002626 8.84851063 3 8 C1.82513503 5.37383124 0.90985138 2.72955415 0 0 Z " fill="#6C2238" transform="translate(457,303)"/>
<path d="M0 0 C1.29608753 2.16014589 2.03382057 3.49462406 1.86328125 6.04296875 C1.68152344 6.75066406 1.49976563 7.45835937 1.3125 8.1875 C1.01666016 9.35152344 1.01666016 9.35152344 0.71484375 10.5390625 C-0.40691604 14.40085848 -1.65607591 18.21013405 -3 22 C-4.078125 20.19140625 -4.078125 20.19140625 -5 18 C-4.33262087 16.36492112 -3.64979412 14.73352537 -2.87109375 13.1484375 C-1.17547908 8.96642823 -0.68258707 4.4408312 0 0 Z " fill="#782941" transform="translate(475,374)"/>
<path d="M0 0 C13.58152174 11.36413043 13.58152174 11.36413043 17 18 C13.11602311 16.44997253 10.97020381 13.99523379 8.25 10.875 C7.45078125 9.96492187 6.6515625 9.05484375 5.828125 8.1171875 C5.22484375 7.41851562 4.6215625 6.71984375 4 6 C3.34 6.66 2.68 7.32 2 8 C1.34 5.36 0.68 2.72 0 0 Z " fill="#6C2F40" transform="translate(571,233)"/>
<path d="M0 0 C0.33 0 0.66 0 1 0 C1 1.98 1 3.96 1 6 C1.66 6 2.32 6 3 6 C2.01 11.28 1.02 16.56 0 22 C-0.66 22 -1.32 22 -2 22 C-1.34 14.74 -0.68 7.48 0 0 Z " fill="#652839" transform="translate(275,677)"/>
<path d="M0 0 C0.99 0.33 1.98 0.66 3 1 C1.04563141 3.31595666 -0.91323411 5.62782368 -2.875 7.9375 C-3.43058594 8.59685547 -3.98617188 9.25621094 -4.55859375 9.93554688 C-5.09355469 10.56396484 -5.62851562 11.19238281 -6.1796875 11.83984375 C-6.67194824 12.42113037 -7.16420898 13.00241699 -7.67138672 13.60131836 C-9 15 -9 15 -11 16 C-9.63312778 12.01328937 -7.84804907 9.11505367 -5 6 C-4.34 6 -3.68 6 -3 6 C-3 5.01 -3 4.02 -3 3 C-1.5 1.3125 -1.5 1.3125 0 0 Z " fill="#601E31" transform="translate(450,771)"/>
<path d="M0 0 C0.33 0.99 0.66 1.98 1 3 C-0.51171875 5.3046875 -0.51171875 5.3046875 -2.6875 7.875 C-3.39261719 8.71804688 -4.09773437 9.56109375 -4.82421875 10.4296875 C-5.54222656 11.27789062 -6.26023437 12.12609375 -7 13 C-7.70769531 13.93070312 -8.41539062 14.86140625 -9.14453125 15.8203125 C-9.75683594 16.53960937 -10.36914062 17.25890625 -11 18 C-11.66 18 -12.32 18 -13 18 C-12.44065386 14.24319759 -10.93773004 12.66602887 -8.1875 10.125 C-4.87477765 6.9490687 -2.35558283 3.92597138 0 0 Z " fill="#71283E" transform="translate(562,409)"/>
<path d="M0 0 C1.4230262 2.84605241 0.64509539 4.56758811 0.00390625 7.6640625 C-0.33930664 9.34628906 -0.33930664 9.34628906 -0.68945312 11.0625 C-0.93630859 12.238125 -1.18316406 13.41375 -1.4375 14.625 C-1.68048828 15.80835938 -1.92347656 16.99171875 -2.17382812 18.2109375 C-2.77656957 21.14191548 -3.38554355 24.07145948 -4 27 C-4.33 27 -4.66 27 -5 27 C-5.13927179 21.35949267 -4.71100915 16.21674852 -3.625 10.6875 C-3.49867188 9.98560547 -3.37234375 9.28371094 -3.2421875 8.56054688 C-2.58928845 5.13609137 -1.95926325 2.93889488 0 0 Z " fill="#EFD1DC" transform="translate(154,1010)"/>
<path d="M0 0 C2 0 2 0 3.5078125 1.4609375 C4.04148437 2.09257813 4.57515625 2.72421875 5.125 3.375 C5.66382813 4.00148438 6.20265625 4.62796875 6.7578125 5.2734375 C8 7 8 7 8 9 C8.66 9 9.32 9 10 9 C10.66 10.65 11.32 12.3 12 14 C11.01 14.495 11.01 14.495 10 15 C9.62488281 14.49210938 9.24976563 13.98421875 8.86328125 13.4609375 C5.692633 9.19613608 2.44175544 5.04912405 -1 1 C-0.67 0.67 -0.34 0.34 0 0 Z " fill="#612636" transform="translate(256,613)"/>
<path d="M0 0 C0 4.33685836 -2.08014014 5.9443327 -5 9 C-5.99 9 -6.98 9 -8 9 C-8 9.66 -8 10.32 -8 11 C-9.8125 12.0625 -9.8125 12.0625 -12 13 C-12.99 12.67 -13.98 12.34 -15 12 C-14.25556641 11.45472656 -14.25556641 11.45472656 -13.49609375 10.8984375 C-8.82396523 7.44088508 -4.37421303 3.8274364 0 0 Z " fill="#752A40" transform="translate(546,427)"/>
<path d="M0 0 C3.69677194 1.23225731 4.05778491 2.70660548 5.81640625 6.01171875 C7.80002911 9.34394329 10.3949766 12.14315767 13 15 C12.67 15.66 12.34 16.32 12 17 C10.55726615 15.44233138 9.12103292 13.87864043 7.6875 12.3125 C6.88699219 11.44238281 6.08648437 10.57226562 5.26171875 9.67578125 C0 3.4507772 0 3.4507772 0 0 Z " fill="#6D2438" transform="translate(313,407)"/>
<path d="M0 0 C0.66 0 1.32 0 2 0 C1.855625 0.78375 1.71125 1.5675 1.5625 2.375 C0.97081115 6.18810591 0.60735751 9.98471503 0.28125 13.828125 C0 16 0 16 -1 18 C-1.66 18 -2.32 18 -3 18 C-2.51679152 11.7945858 -1.66681876 6.00054754 0 0 Z " fill="#6A1A31" transform="translate(155,1009)"/>
<path d="M0 0 C0.66 0.33 1.32 0.66 2 1 C2 1.66 2 2.32 2 3 C-2.95 4.65 -7.9 6.3 -13 8 C-13.33 7.34 -13.66 6.68 -14 6 C-12.68 6 -11.36 6 -10 6 C-10 5.34 -10 4.68 -10 4 C-9.16855469 3.69255859 -9.16855469 3.69255859 -8.3203125 3.37890625 C-7.59585937 3.10949219 -6.87140625 2.84007812 -6.125 2.5625 C-5.40570313 2.29566406 -4.68640625 2.02882813 -3.9453125 1.75390625 C-1.96351155 1.02083146 -1.96351155 1.02083146 0 0 Z " fill="#772840" transform="translate(424,440)"/>
<path d="M0 0 C1.69433918 3.0469629 2.49467112 5.82821466 3.125 9.25 C3.29257813 10.14203125 3.46015625 11.0340625 3.6328125 11.953125 C3.75398437 12.62859375 3.87515625 13.3040625 4 14 C0.60582235 10.87378374 -1.6062718 8.43458973 -3 4 C-2.34 4 -1.68 4 -1 4 C-0.67 2.68 -0.34 1.36 0 0 Z " fill="#743F50" transform="translate(214,1293)"/>
<path d="M0 0 C0.99 0.33 1.98 0.66 3 1 C1.44210317 2.13136586 -0.12153857 3.25482321 -1.6875 4.375 C-2.55761719 5.00148438 -3.42773438 5.62796875 -4.32421875 6.2734375 C-6.83596952 7.89415843 -9.19299187 8.99858088 -12 10 C-12 9.34 -12 8.68 -12 8 C-11.360625 7.896875 -10.72125 7.79375 -10.0625 7.6875 C-9.381875 7.460625 -8.70125 7.23375 -8 7 C-7.67 6.01 -7.34 5.02 -7 4 C-5.68 4 -4.36 4 -3 4 C-2.67 3.01 -2.34 2.02 -2 1 C-1.34 0.67 -0.68 0.34 0 0 Z " fill="#71253D" transform="translate(439,432)"/>
<path d="M0 0 C2 3 2 3 1.609375 5.015625 C1.32578125 5.75296875 1.0421875 6.4903125 0.75 7.25 C0.45996094 8.03761719 0.16992188 8.82523437 -0.12890625 9.63671875 C-0.41636719 10.41660156 -0.70382812 11.19648438 -1 12 C-1.70691223 14.32392103 -2.35238215 16.6586124 -3 19 C-3.66 18.67 -4.32 18.34 -5 18 C-3.36959185 11.98922864 -1.72852643 5.98336072 0 0 Z " fill="#7B354A" transform="translate(584,363)"/>
<path d="M0 0 C2.13164775 4.26329551 2.42833642 7.61201724 2.625 12.25 C2.66367187 12.99507813 2.70234375 13.74015625 2.7421875 14.5078125 C2.83605108 16.3381524 2.91909718 18.16904143 3 20 C2.67 20 2.34 20 2 20 C2 18.02 2 16.04 2 14 C1.34 14 0.68 14 0 14 C0 9.38 0 4.76 0 0 Z " fill="#EED0DA" transform="translate(585,288)"/>
<path d="M0 0 C2 1 2 1 2.66796875 2.85546875 C3.71785969 7.56813712 4.22634591 11.21725097 3 16 C2.67 16 2.34 16 2 16 C1.47222137 13.52212405 0.95249746 11.0430336 0.4375 8.5625 C0.28603516 7.85544922 0.13457031 7.14839844 -0.02148438 6.41992188 C-0.39144575 4.62173751 -0.7005656 2.81126406 -1 1 C-0.67 0.67 -0.34 0.34 0 0 Z " fill="#782741" transform="translate(580,257)"/>
<path d="M0 0 C0.66 0.33 1.32 0.66 2 1 C-1.07517084 12.52164009 -1.07517084 12.52164009 -3 18 C-4.61287606 13.96780985 -3.28805625 10.99975363 -2 7 C-1.61994956 5.68895351 -1.24472735 4.37649503 -0.875 3.0625 C-0.58625 2.051875 -0.2975 1.04125 0 0 Z " fill="#692136" transform="translate(626,497)"/>
<path d="M0 0 C0 0.99 0 1.98 0 3 C-1.79143207 3.9795958 -3.58315304 4.9586633 -5.375 5.9375 C-6.37273437 6.48277344 -7.37046875 7.02804687 -8.3984375 7.58984375 C-9.92070346 8.4149759 -11.45128783 9.22564391 -13 10 C-13.66 9.34 -14.32 8.68 -15 8 C-10.05 5.36 -5.1 2.72 0 0 Z " fill="#732B40" transform="translate(515,450)"/>
<path d="M0 0 C0.33 0.66 0.66 1.32 1 2 C-0.40769635 3.79872312 -1.82651003 5.58874968 -3.25 7.375 C-4.03890625 8.37273438 -4.8278125 9.37046875 -5.640625 10.3984375 C-7.75596965 12.73092018 -9.10691236 13.89850333 -12 15 C-8.19695186 9.80789528 -4.23841458 4.84390238 0 0 Z " fill="#EFD9E1" transform="translate(403,830)"/>
<path d="M0 0 C0.66 0 1.32 0 2 0 C0.63629701 2.99220268 -0.94908083 5.29026529 -3.125 7.75 C-3.93324219 8.67039062 -3.93324219 8.67039062 -4.7578125 9.609375 C-5.16773438 10.06828125 -5.57765625 10.5271875 -6 11 C-6.33 10.01 -6.66 9.02 -7 8 C-5.1875 5.3125 -5.1875 5.3125 -3 3 C-2.34 3 -1.68 3 -1 3 C-0.67 2.01 -0.34 1.02 0 0 Z " fill="#5C192C" transform="translate(412,816)"/>
<path d="M0 0 C0.66 0 1.32 0 2 0 C1.68955976 2.39611639 1.37671642 4.79187835 1.0625 7.1875 C0.97548828 7.86103516 0.88847656 8.53457031 0.79882812 9.22851562 C0.32174523 12.85081166 -0.23012035 16.42803585 -1 20 C-1.33 20 -1.66 20 -2 20 C-2.02687279 18.18757948 -2.04633715 16.37504767 -2.0625 14.5625 C-2.07410156 13.55316406 -2.08570313 12.54382813 -2.09765625 11.50390625 C-2 9 -2 9 -1 8 C-0.76924918 6.65252916 -0.58846937 5.29622435 -0.4375 3.9375 C-0.293125 2.638125 -0.14875 1.33875 0 0 Z " fill="#EDD7DF" transform="translate(273,685)"/>
<path d="M0 0 C6.04801071 0.54981916 11.30601106 1.90429574 17 4 C16.34 4.66 15.68 5.32 15 6 C11.31674457 5.6046932 8.09394304 4.34549646 4.6875 2.9375 C3.36298828 2.39416016 3.36298828 2.39416016 2.01171875 1.83984375 C1.34785156 1.56269531 0.68398438 1.28554688 0 1 C0 0.67 0 0.34 0 0 Z " fill="#783247" transform="translate(349,441)"/>
<path d="M0 0 C0.66 0 1.32 0 2 0 C0.57250019 3.79049707 -1.16236542 7.27122456 -3.125 10.8125 C-3.93324219 12.27623047 -3.93324219 12.27623047 -4.7578125 13.76953125 C-5.37269531 14.87361328 -5.37269531 14.87361328 -6 16 C-7 13 -7 13 -6.07421875 10.625 C-5.61660156 9.75875 -5.15898437 8.8925 -4.6875 8 C-4.23761719 7.13375 -3.78773438 6.2675 -3.32421875 5.375 C-2 3 -2 3 0 0 Z " fill="#F6DEE7" transform="translate(313,308)"/>
<path d="M0 0 C0.66 0.99 1.32 1.98 2 3 C0.85821872 4.66944521 -0.28852905 6.3354948 -1.4375 8 C-2.07558594 8.928125 -2.71367187 9.85625 -3.37109375 10.8125 C-3.90863281 11.534375 -4.44617188 12.25625 -5 13 C-5.33 13 -5.66 13 -6 13 C-6 11.35 -6 9.7 -6 8 C-5.01 7.67 -4.02 7.34 -3 7 C-1.84164327 4.02496878 -1.84164327 4.02496878 -1 1 C-0.67 0.67 -0.34 0.34 0 0 Z " fill="#652636" transform="translate(311,944)"/>
<path d="M0 0 C7.92 3.96 7.92 3.96 16 8 C12.41935859 9.19354714 11.84846712 8.75567655 8.5625 7.1875 C7.41974609 6.65189453 7.41974609 6.65189453 6.25390625 6.10546875 C4.16403226 5.08045256 2.07911374 4.0466609 0 3 C0 2.01 0 1.02 0 0 Z " fill="#F5DBE4" transform="translate(340,436)"/>
<path d="M0 0 C0.66 0 1.32 0 2 0 C1.42365861 4.75481646 -0.55068521 7.97048212 -3 12 C-3.33 12 -3.66 12 -4 12 C-4.61528766 6.92387682 -2.61658349 4.17017994 0 0 Z " fill="#611F30" transform="translate(285,982)"/>
<path d="M0 0 C0 3.80345877 -1.13786331 4.77701015 -3.5 7.6875 C-4.47453125 8.89986328 -4.47453125 8.89986328 -5.46875 10.13671875 C-5.9740625 10.75160156 -6.479375 11.36648438 -7 12 C-7.33 11.01 -7.66 10.02 -8 9 C-6.6875 6.8125 -6.6875 6.8125 -5 5 C-4.34 5 -3.68 5 -3 5 C-2.814375 4.0409375 -2.814375 4.0409375 -2.625 3.0625 C-2.41875 2.381875 -2.2125 1.70125 -2 1 C-1.34 0.67 -0.68 0.34 0 0 Z " fill="#5C182C" transform="translate(518,688)"/>
<path d="M0 0 C0.33 0 0.66 0 1 0 C1.37952295 6.19887485 0.8352113 10.4477112 -2 16 C-2.66 16 -3.32 16 -4 16 C-2.68 10.72 -1.36 5.44 0 0 Z " fill="#EBCEDA" transform="translate(633,479)"/>
<path d="M0 0 C0.33 1.32 0.66 2.64 1 4 C-0.43359375 5.921875 -0.43359375 5.921875 -2.4375 7.75 C-3.09621094 8.36359375 -3.75492187 8.9771875 -4.43359375 9.609375 C-5.20896484 10.29773438 -5.20896484 10.29773438 -6 11 C-6.66 10.67 -7.32 10.34 -8 10 C-5.36 6.7 -2.72 3.4 0 0 Z " fill="#F2DFE6" transform="translate(488,728)"/>
<path d="M0 0 C5.29158974 1.40071493 7.77478044 4.85487245 11 9 C8 9 8 9 5.5 6.625 C4.675 5.75875 3.85 4.8925 3 4 C2.01 3.34 1.02 2.68 0 2 C0 1.34 0 0.68 0 0 Z " fill="#722A40" transform="translate(443,290)"/>
<path d="M0 0 C5.62917348 0.40208382 8.00386479 2.28930302 12 6 C11.01 6.495 11.01 6.495 10 7 C7.6171875 5.8203125 7.6171875 5.8203125 4.875 4.125 C3.96492187 3.57070313 3.05484375 3.01640625 2.1171875 2.4453125 C1.41851562 1.96835937 0.71984375 1.49140625 0 1 C0 0.67 0 0.34 0 0 Z " fill="#511324" transform="translate(244,607)"/>
<path d="M0 0 C0.99 0 1.98 0 3 0 C3.25 7.625 3.25 7.625 1 11 C0.67 7.37 0.34 3.74 0 0 Z " fill="#7C2E43" transform="translate(148,1151)"/>
<path d="M0 0 C0.66 0.99 1.32 1.98 2 3 C0.02 5.64 -1.96 8.28 -4 11 C-5 8 -5 8 -4.0625 5.8125 C-3.711875 5.214375 -3.36125 4.61625 -3 4 C-2.34 4 -1.68 4 -1 4 C-0.67 2.68 -0.34 1.36 0 0 Z " fill="#6D273A" transform="translate(555,636)"/>
<path d="M0 0 C0.66 0 1.32 0 2 0 C2.70180531 1.4096347 3.38593958 2.82807641 4.0625 4.25 C4.44535156 5.03890625 4.82820313 5.8278125 5.22265625 6.640625 C6.08564091 9.25993522 5.93045933 10.44855176 5 13 C4.16209211 11.21046815 3.32980604 9.41830305 2.5 7.625 C1.80390625 6.12839844 1.80390625 6.12839844 1.09375 4.6015625 C0 2 0 2 0 0 Z " fill="#4D1321" transform="translate(267,627)"/>
<path d="M0 0 C0.97591583 3.38317487 0.85856655 5.5657338 0 9 C-0.66 9 -1.32 9 -2 9 C-2.33 10.32 -2.66 11.64 -3 13 C-4.23593891 9.29218328 -3.5678132 8.32489747 -2.0625 4.8125 C-1.68222656 3.91144531 -1.30195313 3.01039063 -0.91015625 2.08203125 C-0.60980469 1.39496094 -0.30945313 0.70789063 0 0 Z " fill="#793348" transform="translate(307,322)"/>
<path d="M0 0 C1.44098611 0.76429661 2.87766054 1.53672555 4.3125 2.3125 C5.11300781 2.74175781 5.91351563 3.17101562 6.73828125 3.61328125 C8.83787272 4.90059554 10.35447721 6.18406708 12 8 C7.15409462 7.55946315 3.51858133 5.25494123 0 2 C0 1.34 0 0.68 0 0 Z " fill="#6F273D" transform="translate(431,281)"/>
<path d="M0 0 C0.66 0.99 1.32 1.98 2 3 C1.5390625 5.26171875 1.5390625 5.26171875 0.625 7.6875 C0.18027344 8.89986328 0.18027344 8.89986328 -0.2734375 10.13671875 C-0.51320312 10.75160156 -0.75296875 11.36648438 -1 12 C-1.66 12 -2.32 12 -3 12 C-2.01 8.04 -1.02 4.08 0 0 Z " fill="#752F42" transform="translate(169,955)"/>
<path d="M0 0 C0.99 0.33 1.98 0.66 3 1 C0.36 3.64 -2.28 6.28 -5 9 C-5.66 8.67 -6.32 8.34 -7 8 C-4.69 5.36 -2.38 2.72 0 0 Z " fill="#F2DCE4" transform="translate(467,754)"/>
<path d="M0 0 C0.99 0.33 1.98 0.66 3 1 C3 1.66 3 2.32 3 3 C1.02 3.99 -0.96 4.98 -3 6 C-3.33 5.34 -3.66 4.68 -4 4 C-2.68 2.68 -1.36 1.36 0 0 Z " fill="#5C132A" transform="translate(65,656)"/>
<path d="M0 0 C0 0.66 0 1.32 0 2 C-2.64458379 3.32229189 -4.67761301 3.09677194 -7.625 3.0625 C-8.62789063 3.05347656 -9.63078125 3.04445313 -10.6640625 3.03515625 C-11.43492187 3.02355469 -12.20578125 3.01195312 -13 3 C-13 2.67 -13 2.34 -13 2 C-11.39658445 1.66307215 -9.79223445 1.33058907 -8.1875 1 C-7.29417969 0.814375 -6.40085937 0.62875 -5.48046875 0.4375 C-3 0 -3 0 0 0 Z " fill="#7F3B50" transform="translate(377,497)"/>
<path d="M0 0 C2.10353495 -0.0810206 4.20795952 -0.13919907 6.3125 -0.1875 C7.48425781 -0.22230469 8.65601563 -0.25710938 9.86328125 -0.29296875 C13 0 13 0 16 3 C10.72 2.34 5.44 1.68 0 1 C0 0.67 0 0.34 0 0 Z " fill="#EACED8" transform="translate(399,271)"/>
<path d="M0 0 C0.66 0 1.32 0 2 0 C0.44499019 3.81684226 -2.03595495 6.19195732 -5 9 C-5 8.01 -5 7.02 -5 6 C-4.34 6 -3.68 6 -3 6 C-2.87625 5.38125 -2.7525 4.7625 -2.625 4.125 C-2 2 -2 2 0 0 Z " fill="#5C1A2C" transform="translate(401,829)"/>
<path d="M0 0 C0.66 0 1.32 0 2 0 C1.52797514 4.24822374 -0.96655518 6.19989709 -4 9 C-3.67 7.35 -3.34 5.7 -3 4 C-2.01 3.67 -1.02 3.34 0 3 C0 2.01 0 1.02 0 0 Z " fill="#671F32" transform="translate(503,705)"/>
<path d="M0 0 C1.8871875 0.0309375 1.8871875 0.0309375 3.8125 0.0625 C0.77724514 2.08600324 -0.38176202 2.38374018 -3.875 2.6875 C-4.68324219 2.76226563 -5.49148437 2.83703125 -6.32421875 2.9140625 C-6.93910156 2.96304688 -7.55398437 3.01203125 -8.1875 3.0625 C-6.45706736 -0.39836529 -3.47359009 -0.0569441 0 0 Z " fill="#501223" transform="translate(181.1875,602.9375)"/>
<path d="M0 0 C0 0.99 0 1.98 0 3 C-6.625 4.125 -6.625 4.125 -10 3 C-10 2.67 -10 2.34 -10 2 C-3.375 0 -3.375 0 0 0 Z " fill="#7A2E45" transform="translate(428,485)"/>
<path d="M0 0 C-2.92965912 2.92965912 -5.680053 3.94133569 -9.8125 4.125 C-10.534375 4.08375 -11.25625 4.0425 -12 4 C-4 -1.33333333 -4 -1.33333333 0 0 Z " fill="#6F253C" transform="translate(501,460)"/>
<path d="M0 0 C2.52394612 3.12488567 4.39701907 6.31314387 6 10 C5.67 10.66 5.34 11.32 5 12 C4.566875 11.2575 4.13375 10.515 3.6875 9.75 C2.1018859 7.0240513 2.1018859 7.0240513 0.25 4.875 C-0.36875 3.946875 -0.36875 3.946875 -1 3 C-0.67 2.01 -0.34 1.02 0 0 Z " fill="#712C41" transform="translate(465,313)"/>
<path d="M0 0 C0.33 0.66 0.66 1.32 1 2 C1.66 2 2.32 2 3 2 C6.22265625 7.2734375 6.22265625 7.2734375 7 9 C6.67 9.66 6.34 10.32 6 11 C4.99126984 9.73608512 3.99328178 8.46359117 3 7.1875 C2.443125 6.47980469 1.88625 5.77210937 1.3125 5.04296875 C0 3 0 3 0 0 Z " fill="#6E263B" transform="translate(198,1279)"/>
<path d="M0 0 C1.32 0.33 2.64 0.66 4 1 C4.33 2.98 4.66 4.96 5 7 C4.01 7.495 4.01 7.495 3 8 C2.01 5.36 1.02 2.72 0 0 Z " fill="#76283E" transform="translate(168,1225)"/>
<path d="M0 0 C0.95465783 2.16967689 1.14401212 3.56328793 0.3984375 5.82421875 C-0.35870385 7.5684743 -1.17609198 9.28627131 -2 11 C-2.95465783 8.83032311 -3.14401212 7.43671207 -2.3984375 5.17578125 C-1.64129615 3.4315257 -0.82390802 1.71372869 0 0 Z " fill="#6A2438" transform="translate(198,881)"/>
<path d="M0 0 C0.99 0.66 1.98 1.32 3 2 C0.14693203 4.32472205 -2.54074837 5.7508258 -6 7 C-4.02 4.69 -2.04 2.38 0 0 Z " fill="#80364D" transform="translate(103,593)"/>
<path d="M0 0 C2.23551759 3.35327639 2.17283528 3.90743657 1.625 7.6875 C1.51414063 8.49574219 1.40328125 9.30398438 1.2890625 10.13671875 C1.19367188 10.75160156 1.09828125 11.36648438 1 12 C-1.23551759 8.64672361 -1.17283528 8.09256343 -0.625 4.3125 C-0.51414063 3.50425781 -0.40328125 2.69601562 -0.2890625 1.86328125 C-0.19367188 1.24839844 -0.09828125 0.63351562 0 0 Z " fill="#5F2434" transform="translate(210,1158)"/>
<path d="M0 0 C0.33 0.66 0.66 1.32 1 2 C0.07421875 3.9453125 0.07421875 3.9453125 -1.3125 6.125 C-1.76238281 6.84945312 -2.21226562 7.57390625 -2.67578125 8.3203125 C-3.11277344 8.87460937 -3.54976563 9.42890625 -4 10 C-4.66 10 -5.32 10 -6 10 C-4.6302836 6.00499382 -2.74277578 3.19990508 0 0 Z " fill="#EDD4DC" transform="translate(323,931)"/>
<path d="M0 0 C0 3.93169105 -1.39419615 5.16427228 -4 8 C-4.66 8 -5.32 8 -6 8 C-4.55746343 4.63408134 -2.66735273 2.48952921 0 0 Z " fill="#5D1A2D" transform="translate(492,721)"/>
<path d="M0 0 C0.66 0.33 1.32 0.66 2 1 C2 3.31 2 5.62 2 8 C0 7 0 7 -1.125 3.9375 C-1.41375 2.968125 -1.7025 1.99875 -2 1 C-1.34 0.67 -0.68 0.34 0 0 Z " fill="#681B34" transform="translate(212,1288)"/>
<path d="M0 0 C0.33 0.66 0.66 1.32 1 2 C-0.98 4.31 -2.96 6.62 -5 9 C-5.66 8.67 -6.32 8.34 -7 8 C-4.69 5.36 -2.38 2.72 0 0 Z " fill="#EFD8E1" transform="translate(367,874)"/>
<path d="M0 0 C0 4.38968456 -2.12805101 5.76905739 -5 9 C-5.66 8.67 -6.32 8.34 -7 8 C-4.69 5.36 -2.38 2.72 0 0 Z " fill="#EFD9E1" transform="translate(380,858)"/>
<path d="M0 0 C0.99 0.33 1.98 0.66 3 1 C0.525 4.465 0.525 4.465 -2 8 C-2.33 6.68 -2.66 5.36 -3 4 C-2.34 4 -1.68 4 -1 4 C-0.67 2.68 -0.34 1.36 0 0 Z " fill="#682437" transform="translate(560,629)"/>
<path d="M0 0 C1.95418308 2.93127462 2.64700993 4.55834679 3 8 C2.34 8.66 1.68 9.32 1 10 C-1.125 3.375 -1.125 3.375 0 0 Z " fill="#792840" transform="translate(164,1209)"/>
<path d="M0 0 C0.66 0.99 1.32 1.98 2 3 C1.125 6.1875 1.125 6.1875 0 9 C-0.66 8.67 -1.32 8.34 -2 8 C-1.34 5.36 -0.68 2.72 0 0 Z " fill="#692C3B" transform="translate(262,735)"/>
<path d="M0 0 C2.64 0.33 5.28 0.66 8 1 C8 1.99 8 2.98 8 4 C5.36 3.01 2.72 2.02 0 1 C0 0.67 0 0.34 0 0 Z " fill="#561C2A" transform="translate(236,604)"/>
<path d="M0 0 C0.33 0 0.66 0 1 0 C1.36923077 6.52307692 1.36923077 6.52307692 -0.5 8.9375 C-0.995 9.288125 -1.49 9.63875 -2 10 C-1.125 2.25 -1.125 2.25 0 0 Z " fill="#F4DCE4" transform="translate(640,446)"/>
<path d="M0 0 C0.99 0 1.98 0 3 0 C2.67 2.97 2.34 5.94 2 9 C1.67 9 1.34 9 1 9 C0.67 6.03 0.34 3.06 0 0 Z " fill="#782D43" transform="translate(584,279)"/>
</svg>
